<svg xmlns="http://www.w3.org/2000/svg" xmlns:xlink="http://www.w3.org/1999/xlink" xmlns:lucid="lucid" width="2660" height="1600"><g transform="translate(-120 -40)" lucid:page-tab-id="0_0"><path d="M180 160h160v100H180z" stroke="#000" stroke-width="2" fill="#3aa6dd"/><use xlink:href="#a" transform="matrix(1,0,0,1,180,160) translate(37.89388888888888 57)"/><path d="M240 280h40v740h-40zM520 160h420v100H520z" stroke="#000" stroke-width="2" fill="#3aa6dd"/><use xlink:href="#b" transform="matrix(1,0,0,1,520,160) translate(75.94944444444444 57)"/><use xlink:href="#c" transform="matrix(1,0,0,1,520,160) translate(171.28277777777777 57)"/><path d="M700 340h40v260h-40z" stroke="#000" stroke-width="2" fill="#3aa6dd"/><path d="M281 381.47h399.5" stroke="#000" stroke-width="2" fill="none"/><path d="M281 382.47h-1v-2h1z"/><path d="M695.76 381.47l-14.26 4.63v-9.27z" stroke="#000" stroke-width="2"/><use xlink:href="#d" transform="matrix(1,0,0,1,312.62345679012344,340.1333333333334) translate(0 24.888888888888893)"/><use xlink:href="#e" transform="matrix(1,0,0,1,312.62345679012344,340.1333333333334) translate(31.97530864197531 24.888888888888893)"/><use xlink:href="#f" transform="matrix(1,0,0,1,312.62345679012344,340.1333333333334) translate(96.79012345679013 24.888888888888893)"/><use xlink:href="#g" transform="matrix(1,0,0,1,312.62345679012344,340.1333333333334) translate(128.76543209876544 24.888888888888893)"/><use xlink:href="#h" transform="matrix(1,0,0,1,312.62345679012344,340.1333333333334) translate(191.76543209876544 24.888888888888893)"/><use xlink:href="#i" transform="matrix(1,0,0,1,312.62345679012344,340.1333333333334) translate(258.22222222222223 24.888888888888893)"/><path d="M720.84 261v78" fill="none"/><path d="M720.84 261v8.67m0 8.66v17.34m0 8.66v17.34m0 8.66V339" stroke="#000" stroke-width="2" fill="none"/><path d="M721.84 261h-2v-1h2zM848.4 379.8H741v-2h107.4zm393.1 0H880.05v-2h361.45zM741 379.8h-1v-2h1zM1256.76 378.8l-14.26 4.64v-9.28z"/><path d="M1260 378.8l-18.5 6v-12zm-16.5 3.26l10.03-3.26-10.03-3.26z"/><use xlink:href="#j" transform="matrix(1,0,0,1,896.6234567901234,337.4666666666667) translate(0 24.888888888888893)"/><use xlink:href="#k" transform="matrix(1,0,0,1,896.6234567901234,337.4666666666667) translate(55.308641975308646 24.888888888888893)"/><use xlink:href="#l" transform="matrix(1,0,0,1,896.6234567901234,337.4666666666667) translate(143.97530864197535 24.888888888888893)"/><use xlink:href="#m" transform="matrix(1,0,0,1,848.3997793187544,368.00000000000006) translate(0 14.4)"/><path d="M1080 160h420v100h-420z" stroke="#000" stroke-width="2" fill="#3aa6dd"/><use xlink:href="#n" transform="matrix(1,0,0,1,1080,160) translate(96.78277777777777 57)"/><use xlink:href="#o" transform="matrix(1,0,0,1,1080,160) translate(227.67166666666668 57)"/><path d="M1260 350h40v250h-40zM1660 160h420v100h-420z" stroke="#000" stroke-width="2" fill="#3aa6dd"/><use xlink:href="#p" transform="matrix(1,0,0,1,1660,160) translate(113.83833333333332 57)"/><use xlink:href="#o" transform="matrix(1,0,0,1,1660,160) translate(210.61611111111108 57)"/><path d="M1850 350h40v120h-40z" stroke="#000" stroke-width="2" fill="#3aa6dd"/><path d="M1301 377h529.5" stroke="#000" stroke-width="2" fill="none"/><path d="M1301 378h-1v-2h1z"/><path d="M1845.76 377l-14.26 4.62v-9.27z" stroke="#000" stroke-width="2"/><use xlink:href="#q" transform="matrix(1,0,0,1,1490.611111111111,335.6547677920091) translate(0 24.888888888888893)"/><use xlink:href="#r" transform="matrix(1,0,0,1,1490.611111111111,335.6547677920091) translate(31.97530864197531 24.888888888888893)"/><use xlink:href="#l" transform="matrix(1,0,0,1,1490.611111111111,335.6547677920091) translate(105.00000000000003 24.888888888888893)"/><path d="M2280 160h420v100h-420z" stroke="#000" stroke-width="2" fill="#3aa6dd"/><use xlink:href="#s" transform="matrix(1,0,0,1,2280,160) translate(92.28277777777777 57)"/><use xlink:href="#o" transform="matrix(1,0,0,1,2280,160) translate(232.17166666666668 57)"/><path d="M2500 340h40v120h-40z" stroke="#000" stroke-width="2" fill="#3aa6dd"/><path d="M1259 550.8H759.5" stroke="#000" stroke-width="2" fill="none"/><path d="M1260 551.8h-1v-2h1z"/><path d="M744.24 550.8l14.26-4.64v9.28z" stroke="#000" stroke-width="2"/><use xlink:href="#t" transform="matrix(1,0,0,1,881.7345679012345,554.8000000000001) translate(0 24.888888888888893)"/><use xlink:href="#u" transform="matrix(1,0,0,1,881.7345679012345,554.8000000000001) translate(78.64197530864197 24.888888888888893)"/><use xlink:href="#l" transform="matrix(1,0,0,1,881.7345679012345,554.8000000000001) translate(172.7530864197531 24.888888888888893)"/><path d="M1891 410h304v-.95h285.5" stroke="#000" stroke-width="2" fill="none"/><path d="M1891 411h-1v-2h1z"/><path d="M2495.76 409.05l-14.26 4.63v-9.27z" stroke="#000" stroke-width="2"/><use xlink:href="#v" transform="matrix(1,0,0,1,2086.7400974035227,367.7146223889935) translate(0 24.888888888888893)"/><use xlink:href="#w" transform="matrix(1,0,0,1,2086.7400974035227,367.7146223889935) translate(55.308641975308646 24.888888888888893)"/><use xlink:href="#l" transform="matrix(1,0,0,1,2086.7400974035227,367.7146223889935) translate(152.70370370370375 24.888888888888893)"/><path d="M1280 349v-88" fill="none"/><path d="M1280 349v-9.78m0-9.78V309.9m0-9.8v-19.54m0-9.78V261" stroke="#000" stroke-width="2" fill="none"/><path d="M1281 350h-2v-1h2zM1281 261h-2v-1h2z"/><path d="M1870 349v-88" fill="none"/><path d="M1870 349v-9.78m0-9.78V309.9m0-9.8v-19.54m0-9.78V261" stroke="#000" stroke-width="2" fill="none"/><path d="M1871 350h-2v-1h2zM1871 261h-2v-1h2z"/><path d="M2519.27 261v78" fill="none"/><path d="M2519.27 261v8.67m0 8.66v17.34m0 8.66v17.34m0 8.66V339" stroke="#000" stroke-width="2" fill="none"/><path d="M2520.27 261h-2v-1h2zM2520.27 340h-2v-1h2z"/><path d="M700 780h40v260h-40z" stroke="#000" stroke-width="2" fill="#3aa6dd"/><path d="M720 601v178" fill="none"/><path d="M720 601v9.9m0 9.88v19.78m0 9.88v19.78m0 9.9v19.77m0 9.88v19.78m0 9.88v19.78m0 9.9V779" stroke="#000" stroke-width="2" fill="none"/><path d="M721 601h-2v-1h2zM721 780h-2v-1h2z"/><path d="M281 847.78h399.5" stroke="#000" stroke-width="2" fill="none"/><path d="M281 848.78h-1v-2h1z"/><path d="M695.76 847.78l-14.26 4.64v-9.27z" stroke="#000" stroke-width="2"/><use xlink:href="#x" transform="matrix(1,0,0,1,302.2962962962963,806.4516575836293) translate(0 24.888888888888893)"/><use xlink:href="#e" transform="matrix(1,0,0,1,302.2962962962963,806.4516575836293) translate(31.97530864197531 24.888888888888893)"/><use xlink:href="#f" transform="matrix(1,0,0,1,302.2962962962963,806.4516575836293) translate(96.79012345679013 24.888888888888893)"/><use xlink:href="#g" transform="matrix(1,0,0,1,302.2962962962963,806.4516575836293) translate(128.76543209876544 24.888888888888893)"/><use xlink:href="#y" transform="matrix(1,0,0,1,302.2962962962963,806.4516575836293) translate(191.76543209876544 24.888888888888893)"/><use xlink:href="#i" transform="matrix(1,0,0,1,302.2962962962963,806.4516575836293) translate(278.87654320987656 24.888888888888893)"/><path d="M699 957.75H299.5" stroke="#000" stroke-width="2" fill="none"/><path d="M700 958.75h-1v-2h1z"/><path d="M284.24 957.75l14.26-4.63v9.27z" stroke="#000" stroke-width="2"/><use xlink:href="#z" transform="matrix(1,0,0,1,295.59876543209873,961.7516023147814) translate(0 24.888888888888893)"/><use xlink:href="#A" transform="matrix(1,0,0,1,295.59876543209873,961.7516023147814) translate(55.308641975308646 24.888888888888893)"/><use xlink:href="#B" transform="matrix(1,0,0,1,295.59876543209873,961.7516023147814) translate(190.81481481481484 24.888888888888893)"/><use xlink:href="#C" transform="matrix(1,0,0,1,295.59876543209873,961.7516023147814) translate(283.6296296296297 24.888888888888893)"/><path d="M1850 660h40v540h-40z" stroke="#000" stroke-width="2" fill="#3aa6dd"/><path d="M1870 471v188" fill="none"/><path d="M1870 471v10.44m0 10.45v20.88m0 10.44v20.9m0 10.44v20.88m0 10.45v20.88m0 10.44v20.9m0 10.44V659" stroke="#000" stroke-width="2" fill="none"/><path d="M1871 471h-2v-1h2z"/><path d="M2500 590h40v910h-40z" stroke="#000" stroke-width="2" fill="#3aa6dd"/><path d="M1891 1152.9h589.5" stroke="#000" stroke-width="2" fill="none"/><path d="M1891 1153.9h-1v-2h1z"/><path d="M2495.76 1152.9l-14.26 4.64v-9.28z" stroke="#000" stroke-width="2"/><use xlink:href="#D" transform="matrix(1,0,0,1,2098.425925925926,1111.5666666666664) translate(0 24.888888888888893)"/><use xlink:href="#w" transform="matrix(1,0,0,1,2098.425925925926,1111.5666666666664) translate(31.97530864197531 24.888888888888893)"/><use xlink:href="#l" transform="matrix(1,0,0,1,2098.425925925926,1111.5666666666664) translate(129.3703703703704 24.888888888888893)"/><path d="M2520 461v128" fill="none"/><path d="M2520 461v10.67m0 10.66v21.34m0 10.66v21.34m0 10.66v21.34m0 10.66V589" stroke="#000" stroke-width="2" fill="none"/><path d="M2521 461h-2v-1h2z"/><path d="M700 1220h40v260h-40z" stroke="#000" stroke-width="2" fill="#3aa6dd"/><path d="M720 1041v178" fill="none"/><path d="M720 1041v9.9m0 9.88v19.78m0 9.88v19.78m0 9.9v19.77m0 9.88v19.78m0 9.88v19.78m0 9.9v9.88" stroke="#000" stroke-width="2" fill="none"/><path d="M721 1041h-2v-1h2zM721 1220h-2v-1h2z"/><path d="M2499 1257.76H759.5" stroke="#000" stroke-width="2" fill="none"/><path d="M2500 1258.76h-1v-2h1z"/><path d="M744.24 1257.76l14.26-4.63v9.27z" stroke="#000" stroke-width="2"/><g><use xlink:href="#E" transform="matrix(1,0,0,1,1460.9012345679012,1261.7630754616507) translate(0 24.888888888888893)"/><use xlink:href="#F" transform="matrix(1,0,0,1,1460.9012345679012,1261.7630754616507) translate(55.308641975308646 24.888888888888893)"/><use xlink:href="#l" transform="matrix(1,0,0,1,1460.9012345679012,1261.7630754616507) translate(254.41975308641975 24.888888888888893)"/></g><path d="M2499 1362.1H759.5" stroke="#000" stroke-width="2" fill="none"/><path d="M2500 1363.1h-1v-2h1z"/><path d="M744.24 1362.1l14.26-4.64v9.27z" stroke="#000" stroke-width="2"/><g><use xlink:href="#G" transform="matrix(1,0,0,1,1475.8086419753088,1366.0903734544531) translate(0 24.888888888888893)"/><use xlink:href="#H" transform="matrix(1,0,0,1,1475.8086419753088,1366.0903734544531) translate(55.308641975308646 24.888888888888893)"/><use xlink:href="#I" transform="matrix(1,0,0,1,1475.8086419753088,1366.0903734544531) translate(185.71604938271605 24.888888888888893)"/><use xlink:href="#l" transform="matrix(1,0,0,1,1475.8086419753088,1366.0903734544531) translate(224.60493827160494 24.888888888888893)"/></g><path d="M2499 1455.14H759.5" stroke="#000" stroke-width="2" fill="none"/><path d="M2500 1456.14h-1v-2h1z"/><path d="M744.24 1455.14l14.26-4.64v9.27z" stroke="#000" stroke-width="2"/><g><use xlink:href="#J" transform="matrix(1,0,0,1,1513.4012345679012,1459.1390446372227) translate(0 24.888888888888893)"/><use xlink:href="#u" transform="matrix(1,0,0,1,1513.4012345679012,1459.1390446372227) translate(55.308641975308646 24.888888888888893)"/><use xlink:href="#l" transform="matrix(1,0,0,1,1513.4012345679012,1459.1390446372227) translate(149.41975308641975 24.888888888888893)"/></g><path d="M140 60h190v20l-10 10H140z" fill="#fff"/><path d="M140 60h2620v1560H140z" stroke="#000" stroke-width="2" fill="none"/><path d="M330 60v20l-10 10H140" stroke="#000" stroke-width="2" fill="#fff"/><g><use xlink:href="#K" transform="matrix(1,0,0,1,148,60) translate(0 18.6)"/></g><defs><path d="M232-93c-1 65-40 97-104 97C67 4 28-28 28-90v-158h33c8 89-33 224 67 224 102 0 64-133 71-224h33v155" id="L"/><path d="M135-143c-3-34-86-38-87 0 15 53 115 12 119 90S17 21 10-45l28-5c4 36 97 45 98 0-10-56-113-15-118-90-4-57 82-63 122-42 12 7 21 19 24 35" id="M"/><path d="M100-194c63 0 86 42 84 106H49c0 40 14 67 53 68 26 1 43-12 49-29l28 8c-11 28-37 45-77 45C44 4 14-33 15-96c1-61 26-98 85-98zm52 81c6-60-76-77-97-28-3 7-6 17-6 28h103" id="N"/><path d="M114-163C36-179 61-72 57 0H25l-1-190h30c1 12-1 29 2 39 6-27 23-49 58-41v29" id="O"/><g id="a"><use transform="matrix(0.1111111111111111,0,0,0.1111111111111111,0,0)" xlink:href="#L"/><use transform="matrix(0.1111111111111111,0,0,0.1111111111111111,28.777777777777775,0)" xlink:href="#M"/><use transform="matrix(0.1111111111111111,0,0,0.1111111111111111,48.77777777777777,0)" xlink:href="#N"/><use transform="matrix(0.1111111111111111,0,0,0.1111111111111111,71,0)" xlink:href="#O"/><path d="M-2 2.77h88.22V5.7H-2z"/></g><g id="b"><use transform="matrix(0.1111111111111111,0,0,0.1111111111111111,0,0)" xlink:href="#L"/><use transform="matrix(0.1111111111111111,0,0,0.1111111111111111,28.777777777777775,0)" xlink:href="#M"/><use transform="matrix(0.1111111111111111,0,0,0.1111111111111111,48.77777777777777,0)" xlink:href="#N"/><use transform="matrix(0.1111111111111111,0,0,0.1111111111111111,71,0)" xlink:href="#O"/><path d="M-2 2.77h99.33V5.7H-2z"/></g><path d="M212-179c-10-28-35-45-73-45-59 0-87 40-87 99 0 60 29 101 89 101 43 0 62-24 78-52l27 14C228-24 195 4 139 4 59 4 22-46 18-125c-6-104 99-153 187-111 19 9 31 26 39 46" id="P"/><path d="M100-194c62-1 85 37 85 99 1 63-27 99-86 99S16-35 15-95c0-66 28-99 85-99zM99-20c44 1 53-31 53-75 0-43-8-75-51-75s-53 32-53 75 10 74 51 75" id="Q"/><path d="M117-194c89-4 53 116 60 194h-32v-121c0-31-8-49-39-48C34-167 62-67 57 0H25l-1-190h30c1 10-1 24 2 32 11-22 29-35 61-36" id="R"/><path d="M59-47c-2 24 18 29 38 22v24C64 9 27 4 27-40v-127H5v-23h24l9-43h21v43h35v23H59v120" id="S"/><path d="M24 0v-261h32V0H24" id="T"/><g id="c"><use transform="matrix(0.1111111111111111,0,0,0.1111111111111111,0,0)" xlink:href="#P"/><use transform="matrix(0.1111111111111111,0,0,0.1111111111111111,28.777777777777775,0)" xlink:href="#Q"/><use transform="matrix(0.1111111111111111,0,0,0.1111111111111111,51,0)" xlink:href="#R"/><use transform="matrix(0.1111111111111111,0,0,0.1111111111111111,73.22222222222223,0)" xlink:href="#S"/><use transform="matrix(0.1111111111111111,0,0,0.1111111111111111,84.33333333333334,0)" xlink:href="#O"/><use transform="matrix(0.1111111111111111,0,0,0.1111111111111111,97.55555555555557,0)" xlink:href="#Q"/><use transform="matrix(0.1111111111111111,0,0,0.1111111111111111,119.7777777777778,0)" xlink:href="#T"/><use transform="matrix(0.1111111111111111,0,0,0.1111111111111111,128.55555555555557,0)" xlink:href="#T"/><use transform="matrix(0.1111111111111111,0,0,0.1111111111111111,137.33333333333334,0)" xlink:href="#N"/><use transform="matrix(0.1111111111111111,0,0,0.1111111111111111,159.55555555555557,0)" xlink:href="#O"/><path d="M-2 2.77h176.78V5.7H-2z"/></g><path d="M110-14l48 5v9H32v-9l48-5v-192l-48 17v-10l69-39h9v224" id="U"/><path d="M50-37c14 0 21 9 21 21S62 5 50 5C37 5 28-4 28-16s8-21 22-21zm0-132c12 0 21 9 21 21 0 13-9 22-21 22-13 0-22-9-22-22 0-12 9-21 22-21" id="V"/><g id="d"><use transform="matrix(0.08641975308641976,0,0,0.08641975308641976,0,0)" xlink:href="#U"/><use transform="matrix(0.08641975308641976,0,0,0.08641975308641976,15.555555555555557,0)" xlink:href="#V"/></g><path d="M178-68c0 79-95 82-154 59v-54h12c1 35 22 52 60 52 50 0 69-58 33-82-39-24-105-21-105-85 0-67 86-66 142-53v49h-12l-6-29c-31-27-121-7-89 42 28 43 119 24 119 101" id="W"/><path d="M47-200c-23 0-25-39 0-38 13 0 18 7 20 19-1 11-8 19-20 19zM65-12l28 4v8H8v-8l28-4v-141l-24-4v-8h53v153" id="X"/><path d="M141-152c28 39 5 97-54 97-9 0-20-2-27-3L49-35c29 22 130-14 124 52-4 45-38 57-88 61C21 83-8 26 45-2 33-6 22-15 21-31l28-31c-19-9-28-26-28-51-2-51 53-65 100-52l38-20 7 8zM85 64c35 0 61-11 61-42 0-35-57-17-89-21-9 8-16 19-17 34 0 25 19 29 45 29zM52-113c1 26 7 46 35 44 28-1 34-16 35-44 0-26-6-43-34-43s-36 17-36 43" id="Y"/><path d="M125-118c4-37-41-34-68-26v132l23 4v8H8C5-13 21-9 28-12v-141c-7-3-23 1-20-12h47l2 13c31-23 98-29 98 31v109c7 3 23-1 20 12h-72v-8l22-4v-106" id="Z"/><g id="e"><use transform="matrix(0.08641975308641976,0,0,0.08641975308641976,0,0)" xlink:href="#W"/><use transform="matrix(0.08641975308641976,0,0,0.08641975308641976,17.283950617283953,0)" xlink:href="#X"/><use transform="matrix(0.08641975308641976,0,0,0.08641975308641976,25.925925925925927,0)" xlink:href="#Y"/><use transform="matrix(0.08641975308641976,0,0,0.08641975308641976,41.48148148148149,0)" xlink:href="#Z"/></g><g id="f"><use transform="matrix(0.08641975308641976,0,0,0.08641975308641976,0,0)" xlink:href="#X"/><use transform="matrix(0.08641975308641976,0,0,0.08641975308641976,8.641975308641976,0)" xlink:href="#Z"/></g><path d="M240-154L185 4h-14l-41-109L90 4H77L20-153c-7-3-23 1-20-12h79v8l-27 4L91-41l40-108h14l40 109 38-113-28-4v-8h63v8" id="aa"/><path d="M54-38c-1 25 24 26 44 20v12C71 10 25 9 25-35v-115H4c-2-14 14-10 21-15l18-38h11v38h38v15H54v112" id="ab"/><path d="M126-119c3-38-42-31-69-25v132l23 4v8H7v-8l21-4v-226l-24-4v-8h53l-1 98c31-22 99-31 99 31v109c7 3 23-1 20 12h-71v-8l22-4v-107" id="ac"/><g id="g"><use transform="matrix(0.08641975308641976,0,0,0.08641975308641976,0,0)" xlink:href="#aa"/><use transform="matrix(0.08641975308641976,0,0,0.08641975308641976,22.38271604938272,0)" xlink:href="#X"/><use transform="matrix(0.08641975308641976,0,0,0.08641975308641976,31.024691358024693,0)" xlink:href="#ab"/><use transform="matrix(0.08641975308641976,0,0,0.08641975308641976,39.66666666666667,0)" xlink:href="#ac"/></g><path d="M57-145c16-10 35-24 60-25v45c-19 1-8-30-40-17l-20 6v124l29 4v8H7v-8l21-4v-141c-8-3-24 2-21-12h48" id="ad"/><g id="h"><use transform="matrix(0.08641975308641976,0,0,0.08641975308641976,0,0)" xlink:href="#ad"/><use transform="matrix(0.08641975308641976,0,0,0.08641975308641976,10.283950617283951,0)" xlink:href="#X"/><use transform="matrix(0.08641975308641976,0,0,0.08641975308641976,18.925925925925927,0)" xlink:href="#Y"/><use transform="matrix(0.08641975308641976,0,0,0.08641975308641976,34.48148148148148,0)" xlink:href="#ac"/><use transform="matrix(0.08641975308641976,0,0,0.08641975308641976,50.037037037037045,0)" xlink:href="#ab"/></g><path d="M32-163c41-10 102-14 102 39v112c8 3 24-2 21 12h-45l-4-17C83 13 3 13 13-46c-2-50 45-50 92-51 4-36-5-70-42-56-6 2-12 4-16 6-4 7 0 23-15 20v-36zM42-47c0 41 41 33 63 22v-59c-34 1-63-1-63 37" id="ae"/><path d="M45-84c0 64 52 80 104 63 1 25-30 25-55 25-56 0-80-32-80-88 0-76 62-98 131-80v46h-10c-5-15-4-31-23-35-47-10-67 21-67 69" id="af"/><path d="M90-170c52 0 76 32 76 87 0 54-24 87-77 87-51 0-75-34-75-87 0-54 24-87 76-87zM89-10c39 0 46-35 46-73 0-39-7-73-46-73-39 1-44 34-44 73s6 72 44 73" id="ag"/><path d="M124-13C89 8 26 15 26-45v-108c-8-3-24 2-21-12h50v118c-3 37 42 32 69 25v-131l-25-4v-8h54v153c8 3 24-2 21 12h-48" id="ah"/><g id="i"><use transform="matrix(0.08641975308641976,0,0,0.08641975308641976,0,0)" xlink:href="#ae"/><use transform="matrix(0.08641975308641976,0,0,0.08641975308641976,13.740740740740742,0)" xlink:href="#af"/><use transform="matrix(0.08641975308641976,0,0,0.08641975308641976,27.481481481481485,0)" xlink:href="#af"/><use transform="matrix(0.08641975308641976,0,0,0.08641975308641976,41.22222222222223,0)" xlink:href="#ag"/><use transform="matrix(0.08641975308641976,0,0,0.08641975308641976,56.777777777777786,0)" xlink:href="#ah"/><use transform="matrix(0.08641975308641976,0,0,0.08641975308641976,72.33333333333334,0)" xlink:href="#Z"/><use transform="matrix(0.08641975308641976,0,0,0.08641975308641976,87.8888888888889,0)" xlink:href="#ab"/></g><path d="M45-37c13 0 21 8 21 21C67-2 57 4 45 5 33 4 23-2 24-16c0-13 8-21 21-21" id="ai"/><g id="j"><use transform="matrix(0.08641975308641976,0,0,0.08641975308641976,0,0)" xlink:href="#U"/><use transform="matrix(0.08641975308641976,0,0,0.08641975308641976,15.555555555555557,0)" xlink:href="#ai"/><use transform="matrix(0.08641975308641976,0,0,0.08641975308641976,23.333333333333336,0)" xlink:href="#U"/><use transform="matrix(0.08641975308641976,0,0,0.08641975308641976,38.88888888888889,0)" xlink:href="#V"/></g><path d="M52-115c0 93 80 130 150 87l7-35h11l-1 55c-23 7-52 12-83 12C60 4 19-37 15-115c-5-113 97-141 201-114l1 51h-12l-5-30c-15-9-39-16-62-16-66 0-86 41-86 109" id="aj"/><path d="M84-170c49 0 66 33 63 87H46c-8 60 38 80 95 63v10C128-2 108 4 88 4 34 4 14-29 14-84c-1-54 22-86 70-86zm33 73c12-57-57-82-69-24-1 7-2 15-2 24h71" id="ak"/><g id="k"><use transform="matrix(0.08641975308641976,0,0,0.08641975308641976,0,0)" xlink:href="#aj"/><use transform="matrix(0.08641975308641976,0,0,0.08641975308641976,20.740740740740744,0)" xlink:href="#ad"/><use transform="matrix(0.08641975308641976,0,0,0.08641975308641976,31.024691358024693,0)" xlink:href="#ak"/><use transform="matrix(0.08641975308641976,0,0,0.08641975308641976,44.76543209876544,0)" xlink:href="#ae"/><use transform="matrix(0.08641975308641976,0,0,0.08641975308641976,58.50617283950618,0)" xlink:href="#ab"/><use transform="matrix(0.08641975308641976,0,0,0.08641975308641976,67.14814814814815,0)" xlink:href="#ak"/></g><path d="M77-14l30 5v9H13v-9l30-5v-208l-30-4v-10h94v10l-30 4v208" id="al"/><path d="M41-130c7 48 86 23 86 84 0 56-69 57-112 41v-40c20 0 9 29 31 31 35 19 77-26 41-50-27-18-72-13-72-59 0-50 58-52 100-41v36c-19 1-8-25-28-25-21-7-50-1-46 23" id="am"/><g id="l"><use transform="matrix(0.08641975308641976,0,0,0.08641975308641976,0,0)" xlink:href="#al"/><use transform="matrix(0.08641975308641976,0,0,0.08641975308641976,10.283950617283951,0)" xlink:href="#am"/><use transform="matrix(0.08641975308641976,0,0,0.08641975308641976,22.382716049382715,0)" xlink:href="#am"/><use transform="matrix(0.08641975308641976,0,0,0.08641975308641976,34.48148148148148,0)" xlink:href="#ah"/><use transform="matrix(0.08641975308641976,0,0,0.08641975308641976,50.037037037037045,0)" xlink:href="#ak"/></g><path d="M55 0v-9l38-5v-207c-22 1-53 0-70 4l-5 37H7v-56h207v56h-12l-5-37-70-3v206l37 5v9H55" id="an"/><path d="M156-12c7 3 23-1 20 12h-75v-8l22-4-38-58-45 58 23 4v8H3v-8l19-3 55-71-48-71c-7-3-23 1-20-12h75v8l-22 4 32 48 37-48-23-4v-8h59v8l-19 3-46 60" id="ao"/><g id="m"><use transform="matrix(0.05,0,0,0.05,0,0)" xlink:href="#an"/><use transform="matrix(0.05,0,0,0.05,9.700000000000001,0)" xlink:href="#ak"/><use transform="matrix(0.05,0,0,0.05,17.650000000000002,0)" xlink:href="#ao"/><use transform="matrix(0.05,0,0,0.05,26.650000000000002,0)" xlink:href="#ab"/></g><path d="M141-36C126-15 110 5 73 4 37 3 15-17 15-53c-1-64 63-63 125-63 3-35-9-54-41-54-24 1-41 7-42 31l-33-3c5-37 33-52 76-52 45 0 72 20 72 64v82c-1 20 7 32 28 27v20c-31 9-61-2-59-35zM48-53c0 20 12 33 32 33 41-3 63-29 60-74-43 2-92-5-92 41" id="ap"/><g id="n"><use transform="matrix(0.1111111111111111,0,0,0.1111111111111111,0,0)" xlink:href="#P"/><use transform="matrix(0.1111111111111111,0,0,0.1111111111111111,28.777777777777775,0)" xlink:href="#O"/><use transform="matrix(0.1111111111111111,0,0,0.1111111111111111,42,0)" xlink:href="#N"/><use transform="matrix(0.1111111111111111,0,0,0.1111111111111111,64.22222222222223,0)" xlink:href="#ap"/><use transform="matrix(0.1111111111111111,0,0,0.1111111111111111,86.44444444444446,0)" xlink:href="#S"/><use transform="matrix(0.1111111111111111,0,0,0.1111111111111111,97.55555555555557,0)" xlink:href="#N"/><path d="M-2 2.77h134.9V5.7H-2z"/></g><path d="M33 0v-248h34V0H33" id="aq"/><path d="M84 4C-5 8 30-112 23-190h32v120c0 31 7 50 39 49 72-2 45-101 50-169h31l1 190h-30c-1-10 1-25-2-33-11 22-28 36-60 37" id="ar"/><g id="o"><use transform="matrix(0.1111111111111111,0,0,0.1111111111111111,0,0)" xlink:href="#aq"/><use transform="matrix(0.1111111111111111,0,0,0.1111111111111111,11.11111111111111,0)" xlink:href="#M"/><use transform="matrix(0.1111111111111111,0,0,0.1111111111111111,31.11111111111111,0)" xlink:href="#M"/><use transform="matrix(0.1111111111111111,0,0,0.1111111111111111,51.111111111111114,0)" xlink:href="#ar"/><use transform="matrix(0.1111111111111111,0,0,0.1111111111111111,73.33333333333334,0)" xlink:href="#N"/><path d="M-2 2.77h99.56V5.7H-2z"/></g><path d="M137 0h-34L2-248h35l83 218 83-218h36" id="as"/><path d="M24-231v-30h32v30H24zM24 0v-190h32V0H24" id="at"/><path d="M206 0h-36l-40-164L89 0H53L-1-190h32L70-26l43-164h34l41 164 42-164h31" id="au"/><g id="p"><use transform="matrix(0.1111111111111111,0,0,0.1111111111111111,0,0)" xlink:href="#as"/><use transform="matrix(0.1111111111111111,0,0,0.1111111111111111,25.888888888888886,0)" xlink:href="#at"/><use transform="matrix(0.1111111111111111,0,0,0.1111111111111111,34.666666666666664,0)" xlink:href="#N"/><use transform="matrix(0.1111111111111111,0,0,0.1111111111111111,56.888888888888886,0)" xlink:href="#au"/><path d="M-2 2.77H98.78V5.7H-2z"/></g><path d="M24-231c66-21 156 2 128 81C132-92 78-66 39-27h121V0H16v-26l59-54c26-25 47-47 47-97 0-48-47-57-81-37l-6 29H24v-46" id="av"/><g id="q"><use transform="matrix(0.08641975308641976,0,0,0.08641975308641976,0,0)" xlink:href="#av"/><use transform="matrix(0.08641975308641976,0,0,0.08641975308641976,15.555555555555557,0)" xlink:href="#V"/></g><path d="M256-236v10l-26 4L135 5h-9L31-222l-27-4v-10h95v10l-31 4 71 174 71-174-31-4v-10h77" id="aw"/><g id="r"><use transform="matrix(0.08641975308641976,0,0,0.08641975308641976,0,0)" xlink:href="#aw"/><use transform="matrix(0.08641975308641976,0,0,0.08641975308641976,20.481481481481485,0)" xlink:href="#X"/><use transform="matrix(0.08641975308641976,0,0,0.08641975308641976,29.123456790123466,0)" xlink:href="#ak"/><use transform="matrix(0.08641975308641976,0,0,0.08641975308641976,42.8641975308642,0)" xlink:href="#aa"/></g><path d="M115-194c55 1 70 41 70 98S169 2 115 4C84 4 66-9 55-30l1 105H24l-1-265h31l2 30c10-21 28-34 59-34zm-8 174c40 0 45-34 45-75s-6-73-45-74c-42 0-51 32-51 76 0 43 10 73 51 73" id="ax"/><path d="M85-194c31 0 48 13 60 33l-1-100h32l1 261h-30c-2-10 0-23-3-31C134-8 116 4 85 4 32 4 16-35 15-94c0-66 23-100 70-100zm9 24c-40 0-46 34-46 75 0 40 6 74 45 74 42 0 51-32 51-76 0-42-9-74-50-73" id="ay"/><g id="s"><use transform="matrix(0.1111111111111111,0,0,0.1111111111111111,0,0)" xlink:href="#L"/><use transform="matrix(0.1111111111111111,0,0,0.1111111111111111,28.777777777777775,0)" xlink:href="#ax"/><use transform="matrix(0.1111111111111111,0,0,0.1111111111111111,51,0)" xlink:href="#ay"/><use transform="matrix(0.1111111111111111,0,0,0.1111111111111111,73.22222222222223,0)" xlink:href="#ap"/><use transform="matrix(0.1111111111111111,0,0,0.1111111111111111,95.44444444444446,0)" xlink:href="#S"/><use transform="matrix(0.1111111111111111,0,0,0.1111111111111111,106.55555555555557,0)" xlink:href="#N"/><path d="M-2 2.77h143.9V5.7H-2z"/></g><g id="t"><use transform="matrix(0.08641975308641976,0,0,0.08641975308641976,0,0)" xlink:href="#U"/><use transform="matrix(0.08641975308641976,0,0,0.08641975308641976,15.555555555555557,0)" xlink:href="#ai"/><use transform="matrix(0.08641975308641976,0,0,0.08641975308641976,23.333333333333336,0)" xlink:href="#U"/><use transform="matrix(0.08641975308641976,0,0,0.08641975308641976,38.88888888888889,0)" xlink:href="#ai"/><use transform="matrix(0.08641975308641976,0,0,0.08641975308641976,46.66666666666667,0)" xlink:href="#U"/><use transform="matrix(0.08641975308641976,0,0,0.08641975308641976,62.22222222222223,0)" xlink:href="#V"/></g><path d="M81-9v9H4v-9l26-5 81-224h33l83 224 30 5v9h-99v-9l31-5-23-68H73L49-14zm38-203L78-98h82" id="az"/><g id="u"><use transform="matrix(0.08641975308641976,0,0,0.08641975308641976,0,0)" xlink:href="#az"/><use transform="matrix(0.08641975308641976,0,0,0.08641975308641976,22.38271604938272,0)" xlink:href="#am"/><use transform="matrix(0.08641975308641976,0,0,0.08641975308641976,34.48148148148148,0)" xlink:href="#am"/><use transform="matrix(0.08641975308641976,0,0,0.08641975308641976,46.58024691358024,0)" xlink:href="#X"/><use transform="matrix(0.08641975308641976,0,0,0.08641975308641976,55.22222222222222,0)" xlink:href="#Y"/><use transform="matrix(0.08641975308641976,0,0,0.08641975308641976,70.77777777777777,0)" xlink:href="#Z"/></g><g id="v"><use transform="matrix(0.08641975308641976,0,0,0.08641975308641976,0,0)" xlink:href="#av"/><use transform="matrix(0.08641975308641976,0,0,0.08641975308641976,15.555555555555557,0)" xlink:href="#ai"/><use transform="matrix(0.08641975308641976,0,0,0.08641975308641976,23.333333333333336,0)" xlink:href="#U"/><use transform="matrix(0.08641975308641976,0,0,0.08641975308641976,38.88888888888889,0)" xlink:href="#V"/></g><path d="M134-16c44-1 70-21 70-64v-142l-32-4v-10h80v10l-30 4v141c0 57-33 84-91 85-58 0-93-26-93-82v-144l-30-4v-10h94v10l-30 4c7 82-31 209 62 206" id="aA"/><path d="M166-85c3 67-44 102-111 85l1 64 29 4v9H6v-9l21-4v-217c-7-3-22 1-19-12h46l1 9c11-8 26-14 45-14 47 2 64 36 66 85zM56-13c53 14 83-14 78-72 7-53-33-79-78-60v132" id="aB"/><path d="M13-81c0-71 46-101 114-85l-1-72-28-4v-8h57v238c8 3 24-2 21 12h-47l-2-12C80 23 13-1 13-81zm77-74c-37 1-44 33-45 74 0 38 9 66 45 66 14 0 27-3 36-7v-130c-10-1-24-3-36-3" id="aC"/><g id="w"><use transform="matrix(0.08641975308641976,0,0,0.08641975308641976,0,0)" xlink:href="#aA"/><use transform="matrix(0.08641975308641976,0,0,0.08641975308641976,22.38271604938272,0)" xlink:href="#aB"/><use transform="matrix(0.08641975308641976,0,0,0.08641975308641976,37.93827160493828,0)" xlink:href="#aC"/><use transform="matrix(0.08641975308641976,0,0,0.08641975308641976,53.49382716049383,0)" xlink:href="#ae"/><use transform="matrix(0.08641975308641976,0,0,0.08641975308641976,67.23456790123458,0)" xlink:href="#ab"/><use transform="matrix(0.08641975308641976,0,0,0.08641975308641976,75.87654320987656,0)" xlink:href="#ak"/></g><path d="M142-52V0h-30v-52H7v-23l115-162h20v160h32v25h-32zm-30-25l-1-119L27-77h85" id="aD"/><g id="x"><use transform="matrix(0.08641975308641976,0,0,0.08641975308641976,0,0)" xlink:href="#aD"/><use transform="matrix(0.08641975308641976,0,0,0.08641975308641976,15.555555555555557,0)" xlink:href="#V"/></g><g id="y"><use transform="matrix(0.08641975308641976,0,0,0.08641975308641976,0,0)" xlink:href="#aa"/><use transform="matrix(0.08641975308641976,0,0,0.08641975308641976,22.38271604938272,0)" xlink:href="#ad"/><use transform="matrix(0.08641975308641976,0,0,0.08641975308641976,32.66666666666667,0)" xlink:href="#ag"/><use transform="matrix(0.08641975308641976,0,0,0.08641975308641976,48.22222222222223,0)" xlink:href="#Z"/><use transform="matrix(0.08641975308641976,0,0,0.08641975308641976,63.777777777777786,0)" xlink:href="#Y"/></g><g id="z"><use transform="matrix(0.08641975308641976,0,0,0.08641975308641976,0,0)" xlink:href="#aD"/><use transform="matrix(0.08641975308641976,0,0,0.08641975308641976,15.555555555555557,0)" xlink:href="#ai"/><use transform="matrix(0.08641975308641976,0,0,0.08641975308641976,23.333333333333336,0)" xlink:href="#U"/><use transform="matrix(0.08641975308641976,0,0,0.08641975308641976,38.88888888888889,0)" xlink:href="#V"/></g><path d="M199-173c-1 36-21 56-49 65l64 94 26 5v9h-57l-66-103H75v89l35 5v9H13v-9l28-5v-208l-31-4v-10c80 4 190-20 189 63zM75-119c50 2 89-1 89-51 0-49-39-52-89-50v101" id="aE"/><g id="A"><use transform="matrix(0.08641975308641976,0,0,0.08641975308641976,0,0)" xlink:href="#aE"/><use transform="matrix(0.08641975308641976,0,0,0.08641975308641976,20.740740740740744,0)" xlink:href="#ak"/><use transform="matrix(0.08641975308641976,0,0,0.08641975308641976,34.48148148148149,0)" xlink:href="#am"/><use transform="matrix(0.08641975308641976,0,0,0.08641975308641976,46.580246913580254,0)" xlink:href="#aB"/><use transform="matrix(0.08641975308641976,0,0,0.08641975308641976,62.13580246913581,0)" xlink:href="#ag"/><use transform="matrix(0.08641975308641976,0,0,0.08641975308641976,77.69135802469137,0)" xlink:href="#Z"/><use transform="matrix(0.08641975308641976,0,0,0.08641975308641976,93.24691358024693,0)" xlink:href="#am"/><use transform="matrix(0.08641975308641976,0,0,0.08641975308641976,105.34567901234568,0)" xlink:href="#ak"/><use transform="matrix(0.08641975308641976,0,0,0.08641975308641976,119.08641975308645,0)" xlink:href="#V"/></g><path d="M319-222L242 5h-10l-61-162L108 5h-9L21-222l-21-4v-10h90v10l-34 4 56 166 63-163h8l61 163 54-166-37-4v-10h78v10" id="aF"/><g id="B"><use transform="matrix(0.08641975308641976,0,0,0.08641975308641976,0,0)" xlink:href="#aF"/><use transform="matrix(0.08641975308641976,0,0,0.08641975308641976,28.08641975308642,0)" xlink:href="#ad"/><use transform="matrix(0.08641975308641976,0,0,0.08641975308641976,38.370370370370374,0)" xlink:href="#ag"/><use transform="matrix(0.08641975308641976,0,0,0.08641975308641976,53.92592592592593,0)" xlink:href="#Z"/><use transform="matrix(0.08641975308641976,0,0,0.08641975308641976,69.4814814814815,0)" xlink:href="#Y"/></g><g id="C"><use transform="matrix(0.08641975308641976,0,0,0.08641975308641976,0,0)" xlink:href="#az"/><use transform="matrix(0.08641975308641976,0,0,0.08641975308641976,22.38271604938272,0)" xlink:href="#af"/><use transform="matrix(0.08641975308641976,0,0,0.08641975308641976,36.12345679012346,0)" xlink:href="#af"/><use transform="matrix(0.08641975308641976,0,0,0.08641975308641976,49.8641975308642,0)" xlink:href="#ag"/><use transform="matrix(0.08641975308641976,0,0,0.08641975308641976,65.41975308641976,0)" xlink:href="#ah"/><use transform="matrix(0.08641975308641976,0,0,0.08641975308641976,80.97530864197532,0)" xlink:href="#Z"/><use transform="matrix(0.08641975308641976,0,0,0.08641975308641976,96.53086419753087,0)" xlink:href="#ab"/></g><path d="M104-123c39 3 61 21 62 59C167 7 83 12 19-4l-2-50h12c2 29 16 43 51 43 38 0 54-19 54-55 2-43-34-49-75-50v-14c37 0 64-7 64-48 0-47-47-56-81-36l-6 29H24v-46c51-13 135-13 131 51-2 34-20 52-51 57" id="aG"/><g id="D"><use transform="matrix(0.08641975308641976,0,0,0.08641975308641976,0,0)" xlink:href="#aG"/><use transform="matrix(0.08641975308641976,0,0,0.08641975308641976,15.555555555555557,0)" xlink:href="#V"/></g><g id="E"><use transform="matrix(0.08641975308641976,0,0,0.08641975308641976,0,0)" xlink:href="#aG"/><use transform="matrix(0.08641975308641976,0,0,0.08641975308641976,15.555555555555557,0)" xlink:href="#ai"/><use transform="matrix(0.08641975308641976,0,0,0.08641975308641976,23.333333333333336,0)" xlink:href="#U"/><use transform="matrix(0.08641975308641976,0,0,0.08641975308641976,38.88888888888889,0)" xlink:href="#V"/></g><path d="M103-236c-39-15-35 32-34 71h44v15H69v136l35 6v8H15v-8l25-6v-136H11v-9l29-7c-6-59 23-100 80-84v36c-15 2-12-14-17-22" id="aH"/><path d="M161-154L85 37C75 66 49 86 8 75V39c18-2 6 24 29 21 30-4 38-32 47-58L21-153c-7-3-20 0-17-12h77v8l-26 4 45 116 43-116-26-4v-8h62v8" id="aI"/><path d="M18 4H0l83-241h17" id="aJ"/><path d="M126-118c4-37-42-32-68-25v131l24 4v8H8C5-13 21-9 28-12v-141c-7-3-23 1-20-12h48l1 13c22-15 77-30 92 2 32-22 104-36 104 29v109c8 3 24-2 21 12h-75v-8l25-4v-106c3-39-45-31-72-24 7 37 1 88 3 130l25 4v8h-78v-8l24-4v-106" id="aK"/><g id="F"><use transform="matrix(0.08641975308641976,0,0,0.08641975308641976,0,0)" xlink:href="#aw"/><use transform="matrix(0.08641975308641976,0,0,0.08641975308641976,18.925925925925927,0)" xlink:href="#ak"/><use transform="matrix(0.08641975308641976,0,0,0.08641975308641976,32.66666666666667,0)" xlink:href="#ad"/><use transform="matrix(0.08641975308641976,0,0,0.08641975308641976,42.95061728395062,0)" xlink:href="#X"/><use transform="matrix(0.08641975308641976,0,0,0.08641975308641976,51.592592592592595,0)" xlink:href="#aH"/><use transform="matrix(0.08641975308641976,0,0,0.08641975308641976,61.87654320987654,0)" xlink:href="#aI"/><use transform="matrix(0.08641975308641976,0,0,0.08641975308641976,77.4320987654321,0)" xlink:href="#aJ"/><use transform="matrix(0.08641975308641976,0,0,0.08641975308641976,86.07407407407408,0)" xlink:href="#aj"/><use transform="matrix(0.08641975308641976,0,0,0.08641975308641976,106.81481481481482,0)" xlink:href="#ag"/><use transform="matrix(0.08641975308641976,0,0,0.08641975308641976,122.37037037037038,0)" xlink:href="#Z"/><use transform="matrix(0.08641975308641976,0,0,0.08641975308641976,137.92592592592592,0)" xlink:href="#aH"/><use transform="matrix(0.08641975308641976,0,0,0.08641975308641976,148.20987654320987,0)" xlink:href="#X"/><use transform="matrix(0.08641975308641976,0,0,0.08641975308641976,156.85185185185185,0)" xlink:href="#ad"/><use transform="matrix(0.08641975308641976,0,0,0.08641975308641976,167.1358024691358,0)" xlink:href="#aK"/></g><g id="G"><use transform="matrix(0.08641975308641976,0,0,0.08641975308641976,0,0)" xlink:href="#aG"/><use transform="matrix(0.08641975308641976,0,0,0.08641975308641976,15.555555555555557,0)" xlink:href="#ai"/><use transform="matrix(0.08641975308641976,0,0,0.08641975308641976,23.333333333333336,0)" xlink:href="#av"/><use transform="matrix(0.08641975308641976,0,0,0.08641975308641976,38.88888888888889,0)" xlink:href="#V"/></g><g id="H"><use transform="matrix(0.08641975308641976,0,0,0.08641975308641976,0,0)" xlink:href="#aj"/><use transform="matrix(0.08641975308641976,0,0,0.08641975308641976,20.740740740740744,0)" xlink:href="#ag"/><use transform="matrix(0.08641975308641976,0,0,0.08641975308641976,36.296296296296305,0)" xlink:href="#aK"/><use transform="matrix(0.08641975308641976,0,0,0.08641975308641976,60.49382716049384,0)" xlink:href="#aK"/><use transform="matrix(0.08641975308641976,0,0,0.08641975308641976,84.69135802469137,0)" xlink:href="#ak"/><use transform="matrix(0.08641975308641976,0,0,0.08641975308641976,98.43209876543212,0)" xlink:href="#Z"/><use transform="matrix(0.08641975308641976,0,0,0.08641975308641976,113.98765432098767,0)" xlink:href="#ab"/></g><g id="I"><use transform="matrix(0.08641975308641976,0,0,0.08641975308641976,0,0)" xlink:href="#ag"/><use transform="matrix(0.08641975308641976,0,0,0.08641975308641976,15.555555555555557,0)" xlink:href="#Z"/></g><g id="J"><use transform="matrix(0.08641975308641976,0,0,0.08641975308641976,0,0)" xlink:href="#aG"/><use transform="matrix(0.08641975308641976,0,0,0.08641975308641976,15.555555555555557,0)" xlink:href="#ai"/><use transform="matrix(0.08641975308641976,0,0,0.08641975308641976,23.333333333333336,0)" xlink:href="#aG"/><use transform="matrix(0.08641975308641976,0,0,0.08641975308641976,38.88888888888889,0)" xlink:href="#V"/></g><path d="M60-80l68-73c-7-3-20 0-17-12h58c3 13-13 9-20 12l-47 48 60 93c7 3 21-1 18 12h-68c-3-12 9-9 15-12L82-83 60-60v48c7 3 21-1 18 12H10v-8l21-4v-226l-24-4v-8h53v170" id="aL"/><path d="M-3 46V28h186v18H-3" id="aM"/><path d="M13-82c-2-68 46-101 114-84 8-3 15-8 28-7V64l18 4v9h-70v-9l23-4c1-25-2-53 2-75-11 8-27 15-47 15-49-1-66-35-68-86zm113-70c-53-13-86 12-81 70-6 54 34 80 81 61v-131" id="aN"/><g id="K"><use transform="matrix(0.05,0,0,0.05,0,0)" xlink:href="#al"/><use transform="matrix(0.05,0,0,0.05,5.95,0)" xlink:href="#am"/><use transform="matrix(0.05,0,0,0.05,12.949999999999998,0)" xlink:href="#am"/><use transform="matrix(0.05,0,0,0.05,19.95,0)" xlink:href="#ah"/><use transform="matrix(0.05,0,0,0.05,28.950000000000003,0)" xlink:href="#ak"/><use transform="matrix(0.05,0,0,0.05,36.9,0)" xlink:href="#an"/><use transform="matrix(0.05,0,0,0.05,47.2,0)" xlink:href="#ad"/><use transform="matrix(0.05,0,0,0.05,53.150000000000006,0)" xlink:href="#ae"/><use transform="matrix(0.05,0,0,0.05,61.1,0)" xlink:href="#af"/><use transform="matrix(0.05,0,0,0.05,69.05000000000001,0)" xlink:href="#aL"/><use transform="matrix(0.05,0,0,0.05,78.05000000000001,0)" xlink:href="#ak"/><use transform="matrix(0.05,0,0,0.05,86.00000000000001,0)" xlink:href="#ad"/><use transform="matrix(0.05,0,0,0.05,91.95000000000002,0)" xlink:href="#aM"/><use transform="matrix(0.05,0,0,0.05,100.95000000000002,0)" xlink:href="#W"/><use transform="matrix(0.05,0,0,0.05,110.95,0)" xlink:href="#ak"/><use transform="matrix(0.05,0,0,0.05,118.90000000000003,0)" xlink:href="#aN"/><use transform="matrix(0.05,0,0,0.05,127.90000000000003,0)" xlink:href="#ah"/><use transform="matrix(0.05,0,0,0.05,136.90000000000003,0)" xlink:href="#ak"/><use transform="matrix(0.05,0,0,0.05,144.85000000000002,0)" xlink:href="#Z"/><use transform="matrix(0.05,0,0,0.05,153.85000000000002,0)" xlink:href="#af"/><use transform="matrix(0.05,0,0,0.05,161.8,0)" xlink:href="#ak"/></g></defs></g></svg>